<svg width="1em" height="0.5em" viewBox="0 0 159 84" fill="#FF0000" xmlns="http://www.w3.org/2000/svg">
<path d="M48.55 14.9C49.65 14.9 50.05 15.15 49.75 15.65C49.45 16.05 49 16.25 48.4 16.25C47.1 16.25 45.4 16.65 43.3 17.45C41.3 18.15 39.3 19.25 37.3 20.75C35.3 22.15 33.6 23.95 32.2 26.15C30.8 28.35 30.1 30.95 30.1 33.95C30.1 37.65 31 40.8 32.8 43.4C34.6 46 37.35 48 41.05 49.4C44.75 50.7 49.35 51.35 54.85 51.35C59.75 51.35 65 50.45 70.6 48.65C76.3 46.75 81.9 44.25 87.4 41.15C93 37.95 98.1 34.4 102.7 30.5C107.3 26.6 110.95 22.6 113.65 18.5C116.45 14.3 117.85 10.3 117.85 6.5C117.85 5.39999 117.25 4.29999 116.05 3.2C114.95 2.1 113.4 1.55 111.4 1.55C106.9 1.55 102.75 2.7 98.95 5C95.15 7.3 91.5 10.5 88 14.6C84.5 18.6 80.95 23.25 77.35 28.55C73.85 33.85 70.15 39.5 66.25 45.5C63.75 49.3 60.8 53.3 57.4 57.5C54.1 61.6 50.3 65.5 46 69.2C41.7 72.8 36.85 75.75 31.45 78.05C26.15 80.25 20.2 81.35 13.6 81.35C4.9 81.35 0.549999 79.55 0.549999 75.95C0.549999 74.85 1.65 73.7 3.85 72.5C5.95 71.2 9.15 70.55 13.45 70.55C17.55 70.55 21.15 71.05 24.25 72.05C27.35 72.95 30.5 74 33.7 75.2C37 76.4 40.85 77.5 45.25 78.5C49.65 79.4 55.2 79.85 61.9 79.85C64.9 79.85 68.2 79.4 71.8 78.5C75.4 77.5 78.05 75.9 79.75 73.7C80.15 73.2 80.55 73 80.95 73.1C81.35 73.2 81.3 73.65 80.8 74.45C79.6 76.15 77.35 77.95 74.05 79.85C70.85 81.65 66.65 82.55 61.45 82.55C57.45 82.55 53.25 82.1 48.85 81.2C44.45 80.3 40.1 79.25 35.8 78.05C31.5 76.75 27.45 75.65 23.65 74.75C19.85 73.85 16.5 73.4 13.6 73.4C10.1 73.4 7.35 73.7 5.35 74.3C3.25 74.8 2.2 75.35 2.2 75.95C2.2 77.05 3.3 78 5.5 78.8C7.6 79.5 10.35 79.85 13.75 79.85C19.15 79.85 23.95 78.85 28.15 76.85C32.35 74.75 36.2 72 39.7 68.6C43.2 65.1 46.5 61.15 49.6 56.75C52.8 52.35 56 47.85 59.2 43.25C63.4 37.05 67.55 31.35 71.65 26.15C75.75 20.95 79.95 16.4 84.25 12.5C88.55 8.6 93.05 5.6 97.75 3.49999C102.55 1.3 107.7 0.199999 113.2 0.199999C115.2 0.199999 117.1 0.749998 118.9 1.85C120.8 2.94999 121.75 4.74999 121.75 7.25C121.75 10.85 120.25 14.75 117.25 18.95C114.35 23.05 110.45 27.1 105.55 31.1C100.75 35.1 95.35 38.75 89.35 42.05C83.45 45.35 77.5 48 71.5 50C65.5 51.9 59.9 52.85 54.7 52.85C47.4 52.85 41.65 51.95 37.45 50.15C33.25 48.35 30.25 46.1 28.45 43.4C26.75 40.7 25.9 38.05 25.9 35.45C25.9 32.15 26.95 28.95 29.05 25.85C31.25 22.65 34.05 20.05 37.45 18.05C40.95 15.95 44.65 14.9 48.55 14.9ZM93.8594 81.35C92.4594 81.35 90.9094 80.95 89.2094 80.15C87.4094 79.45 86.5094 78.25 86.5094 76.55C86.5094 74.45 87.4594 71.8 89.3594 68.6C91.2594 65.4 93.6094 62.1 96.4094 58.7C99.1094 55.3 101.759 52.1 104.359 49.1C106.959 46.1 108.909 43.75 110.209 42.05C111.309 42.15 112.609 42.2 114.109 42.2C115.709 42.2 117.109 42.15 118.309 42.05C116.909 43.75 115.059 45.9 112.759 48.5C110.559 51.1 108.209 53.9 105.709 56.9C103.309 59.8 100.959 62.65 98.6594 65.45C96.4594 68.25 94.6594 70.75 93.2594 72.95C91.8594 75.15 91.1594 76.75 91.1594 77.75C91.1594 78.45 91.4594 78.95 92.0594 79.25C92.6594 79.55 93.6594 79.7 95.0594 79.7C97.4594 79.7 100.109 78.8 103.009 77C106.009 75.1 108.909 72.85 111.709 70.25C114.509 67.65 117.009 65.2 119.209 62.9C121.409 60.5 122.959 58.75 123.859 57.65L125.059 58.7C124.159 59.7 122.609 61.45 120.409 63.95C118.309 66.35 115.759 68.9 112.759 71.6C109.859 74.3 106.759 76.6 103.459 78.5C100.259 80.4 97.0594 81.35 93.8594 81.35ZM123.859 30.65C122.659 30.65 121.759 30.3 121.159 29.6C120.559 28.8 120.259 27.9 120.259 26.9C120.259 25.8 120.859 24.65 122.059 23.45C123.259 22.25 124.509 21.65 125.809 21.65C127.209 21.65 128.209 22.05 128.809 22.85C129.409 23.55 129.709 24.25 129.709 24.95C129.709 26.45 129.109 27.8 127.909 29C126.709 30.1 125.359 30.65 123.859 30.65ZM118.866 83.45C115.366 83.45 112.716 82.8 110.916 81.5C109.116 80.2 108.216 78.45 108.216 76.25C108.216 74.65 108.766 73.25 109.866 72.05C110.866 70.75 112.066 69.75 113.466 69.05C114.866 68.25 115.966 67.85 116.766 67.85C117.866 67.85 118.616 68.1 119.016 68.6C119.316 69 119.466 69.45 119.466 69.95C119.466 70.75 119.016 71.4 118.116 71.9C117.116 72.4 116.316 72.65 115.716 72.65C115.016 72.65 114.416 72.45 113.916 72.05C113.316 71.55 113.016 71.3 113.016 71.3C112.516 71.4 111.816 71.95 110.916 72.95C110.016 73.95 109.566 75.05 109.566 76.25C109.566 77.45 110.216 78.6 111.516 79.7C112.816 80.8 114.916 81.35 117.816 81.35C120.816 81.35 123.666 80.35 126.366 78.35C129.166 76.35 131.466 73.8 133.266 70.7C135.066 67.6 135.966 64.45 135.966 61.25C135.966 60.15 135.966 58.7 135.966 56.9C135.966 55 135.966 53.45 135.966 52.25C135.966 50.75 136.216 49.05 136.716 47.15C137.216 45.15 137.766 43.3 138.366 41.6C139.066 39.9 139.616 38.85 140.016 38.45C140.816 37.75 141.416 37.55 141.816 37.85C142.216 38.15 142.316 38.45 142.116 38.75C142.016 38.85 141.366 39.65 140.166 41.15C138.966 42.55 137.466 44.3 135.666 46.4C133.866 48.5 132.066 50.6 130.266 52.7C128.466 54.8 126.866 56.65 125.466 58.25C124.166 59.85 123.416 60.8 123.216 61.1C122.716 61.8 122.266 61.95 121.866 61.55C121.466 61.15 121.566 60.65 122.166 60.05C123.266 58.65 124.616 57 126.216 55.1C127.916 53.1 129.616 51.15 131.316 49.25C133.016 47.35 134.466 45.75 135.666 44.45C136.966 43.05 137.666 42.25 137.766 42.05C138.066 41.65 138.316 40.95 138.516 39.95C138.816 38.95 139.166 38 139.566 37.1C140.066 36.2 140.666 35.75 141.366 35.75C143.066 35.75 143.916 36.35 143.916 37.55C143.916 38.45 143.216 39.55 141.816 40.85C140.516 42.15 139.766 43.2 139.566 44C139.266 45.2 139.266 46.9 139.566 49.1C139.966 51.2 140.366 53.6 140.766 56.3C141.266 59 141.516 61.85 141.516 64.85C141.516 68.85 140.716 72.1 139.116 74.6C137.516 77 135.516 78.85 133.116 80.15C130.716 81.45 128.216 82.3 125.616 82.7C123.116 83.2 120.866 83.45 118.866 83.45ZM141.966 73.1C139.366 73.1 137.666 72.6 136.866 71.6C136.166 70.6 135.916 69.45 136.116 68.15C136.416 66.75 136.766 65.5 137.166 64.4L138.666 64.55C138.366 65.55 138.066 66.6 137.766 67.7C137.566 68.8 137.716 69.75 138.216 70.55C138.716 71.35 140.016 71.75 142.116 71.75C143.616 71.75 145.316 71.05 147.216 69.65C149.116 68.25 150.966 66.55 152.766 64.55C154.666 62.55 156.266 60.6 157.566 58.7L158.916 59.75C157.616 61.35 156.016 63.2 154.116 65.3C152.316 67.4 150.366 69.25 148.266 70.85C146.166 72.35 144.066 73.1 141.966 73.1Z"/>
</svg>